<?xml version="1.0" encoding="iso-8859-1"?>
<!-- Generator: Adobe Illustrator 22.1.0, SVG Export Plug-In . SVG Version: 6.00 Build 0)  -->
<svg xmlns="http://www.w3.org/2000/svg" xmlns:xlink="http://www.w3.org/1999/xlink" version="1.1" id="Layer_1" x="0px" y="0px" viewBox="0 0 100 100" style="enable-background:new 0 0 100 100;" xml:space="preserve" width="100px" height="100px">
<g>
	<path class="discord-bubble" style="fill:#C7EDE6;" d="M87.215,56.71C88.35,54.555,89,52.105,89,49.5c0-6.621-4.159-12.257-10.001-14.478   C78.999,35.015,79,35.008,79,35c0-11.598-9.402-21-21-21c-9.784,0-17.981,6.701-20.313,15.757C36.211,29.272,34.638,29,33,29   c-7.692,0-14.023,5.793-14.89,13.252C12.906,43.353,9,47.969,9,53.5C9,59.851,14.149,65,20.5,65c0.177,0,0.352-0.012,0.526-0.022   C21.022,65.153,21,65.324,21,65.5C21,76.822,30.178,86,41.5,86c6.437,0,12.175-2.972,15.934-7.614C59.612,80.611,62.64,82,66,82   c4.65,0,8.674-2.65,10.666-6.518C77.718,75.817,78.837,76,80,76c6.075,0,11-4.925,11-11C91,61.689,89.53,58.727,87.215,56.71z"/>
</g>
<g>
	<g>
		<path style="fill:#FDFCEF;" d="M83.875,45.5c0,0,3.64,0,6.125,0s4.5-2.015,4.5-4.5c0-2.333-1.782-4.229-4.055-4.455    C90.467,36.364,90.5,36.187,90.5,36c0-2.485-2.015-4.5-4.5-4.5c-1.438,0-2.703,0.686-3.527,1.736    C82.333,30.6,80.171,28.5,77.5,28.5c-2.761,0-5,2.239-5,5c0,0.446,0.077,0.87,0.187,1.282C72.045,34.005,71.086,33.5,70,33.5    c-1.781,0-3.234,1.335-3.455,3.055C66.364,36.533,66.187,36.5,66,36.5c-2.485,0-4.5,2.015-4.5,4.5s2.015,4.5,4.5,4.5s9.5,0,9.5,0    h5.375V46h3V45.5z"/>
	</g>
	<g>
		<path style="fill:#472B29;" d="M77.5,28c-3.033,0-5.5,2.467-5.5,5.5c0,0.016,0,0.031,0,0.047C71.398,33.192,70.71,33,70,33    c-1.831,0-3.411,1.261-3.858,3.005C66.095,36.002,66.048,36,66,36c-2.757,0-5,2.243-5,5s2.243,5,5,5h14.875    c0.276,0,0.5-0.224,0.5-0.5s-0.224-0.5-0.5-0.5H66c-2.206,0-4-1.794-4-4s1.794-4,4-4c0.117,0,0.23,0.017,0.343,0.032l0.141,0.019    c0.021,0.003,0.041,0.004,0.062,0.004c0.246,0,0.462-0.185,0.495-0.437C67.232,35.125,68.504,34,70,34    c0.885,0,1.723,0.401,2.301,1.1c0.098,0.118,0.241,0.182,0.386,0.182c0.078,0,0.156-0.018,0.228-0.056    c0.209-0.107,0.314-0.346,0.254-0.573C73.054,34.218,73,33.852,73,33.5c0-2.481,2.019-4.5,4.5-4.5    c2.381,0,4.347,1.872,4.474,4.263c0.011,0.208,0.15,0.387,0.349,0.45c0.05,0.016,0.101,0.024,0.152,0.024    c0.15,0,0.296-0.069,0.392-0.192C83.638,32.563,84.779,32,86,32c2.206,0,4,1.794,4,4c0,0.117-0.017,0.23-0.032,0.343l-0.019,0.141    c-0.016,0.134,0.022,0.268,0.106,0.373c0.084,0.105,0.207,0.172,0.34,0.185C92.451,37.247,94,38.949,94,41c0,2.206-1.794,4-4,4    h-6.125c-0.276,0-0.5,0.224-0.5,0.5s0.224,0.5,0.5,0.5H90c2.757,0,5-2.243,5-5c0-2.397-1.689-4.413-4.003-4.877    C90.999,36.082,91,36.041,91,36c0-2.757-2.243-5-5-5c-1.176,0-2.293,0.416-3.183,1.164C82.219,29.76,80.055,28,77.5,28L77.5,28z"/>
	</g>
	<g>
		<path style="fill:#472B29;" d="M76,35c-1.403,0-2.609,0.999-2.913,2.341C72.72,37.119,72.301,37,71.875,37    c-1.202,0-2.198,0.897-2.353,2.068C69.319,39.022,69.126,39,68.938,39c-1.529,0-2.811,1.2-2.918,2.732    C66.01,41.87,66.114,41.99,66.251,42c0.006,0,0.012,0,0.018,0c0.13,0,0.24-0.101,0.249-0.232c0.089-1.271,1.151-2.268,2.419-2.268    c0.229,0,0.47,0.042,0.738,0.127c0.022,0.007,0.045,0.01,0.067,0.01c0.055,0,0.11-0.02,0.156-0.054    C69.962,39.537,70,39.455,70,39.375c0-1.034,0.841-1.875,1.875-1.875c0.447,0,0.885,0.168,1.231,0.473    c0.047,0.041,0.106,0.063,0.165,0.063c0.032,0,0.063-0.006,0.093-0.019c0.088-0.035,0.148-0.117,0.155-0.212    C73.623,36.512,74.712,35.5,76,35.5c0.208,0,0.425,0.034,0.682,0.107c0.023,0.007,0.047,0.01,0.07,0.01    c0.109,0,0.207-0.073,0.239-0.182c0.038-0.133-0.039-0.271-0.172-0.309C76.517,35.04,76.256,35,76,35L76,35z"/>
	</g>
	<g>
		<path style="fill:#472B29;" d="M89.883,36.5c-1.326,0-2.508,0.897-2.874,2.182c-0.038,0.133,0.039,0.271,0.172,0.309    C87.205,38.997,87.228,39,87.25,39c0.109,0,0.209-0.072,0.24-0.182C87.795,37.748,88.779,37,89.883,37    c0.117,0,0.23,0.014,0.342,0.029c0.012,0.002,0.023,0.003,0.035,0.003c0.121,0,0.229-0.092,0.246-0.217    c0.019-0.137-0.077-0.263-0.214-0.281C90.158,36.516,90.022,36.5,89.883,36.5L89.883,36.5z"/>
	</g>
</g>
<g>
	<g>
		<path style="fill:#FFFFFF;" d="M15.405,48H5.5C5.224,48,5,47.776,5,47.5S5.224,47,5.5,47h9.905c0.276,0,0.5,0.224,0.5,0.5    S15.682,48,15.405,48z"/>
	</g>
	<g>
		<path style="fill:#FFFFFF;" d="M18.5,48h-1c-0.276,0-0.5-0.224-0.5-0.5s0.224-0.5,0.5-0.5h1c0.276,0,0.5,0.224,0.5,0.5    S18.777,48,18.5,48z"/>
	</g>
	<g>
		<path style="fill:#FFFFFF;" d="M23.491,50H14.5c-0.276,0-0.5-0.224-0.5-0.5s0.224-0.5,0.5-0.5h8.991c0.276,0,0.5,0.224,0.5,0.5    S23.767,50,23.491,50z"/>
	</g>
	<g>
		<path style="fill:#FFFFFF;" d="M12.5,50h-1c-0.276,0-0.5-0.224-0.5-0.5s0.224-0.5,0.5-0.5h1c0.276,0,0.5,0.224,0.5,0.5    S12.777,50,12.5,50z"/>
	</g>
	<g>
		<path style="fill:#FFFFFF;" d="M9.5,50h-2C7.224,50,7,49.776,7,49.5S7.224,49,7.5,49h2c0.276,0,0.5,0.224,0.5,0.5S9.777,50,9.5,50    z"/>
	</g>
	<g>
		<path style="fill:#FFFFFF;" d="M15.5,52h-2c-0.276,0-0.5-0.224-0.5-0.5s0.224-0.5,0.5-0.5h2c0.276,0,0.5,0.224,0.5,0.5    S15.776,52,15.5,52z"/>
	</g>
	<g>
		<path style="fill:#FFFFFF;" d="M18.5,43c-0.177,0-0.823,0-1,0c-0.276,0-0.5,0.224-0.5,0.5c0,0.276,0.224,0.5,0.5,0.5    c0.177,0,0.823,0,1,0c0.276,0,0.5-0.224,0.5-0.5C19,43.224,18.776,43,18.5,43z"/>
	</g>
	<g>
		<path style="fill:#FFFFFF;" d="M18.5,45c-0.177,0-4.823,0-5,0c-0.276,0-0.5,0.224-0.5,0.5c0,0.276,0.224,0.5,0.5,0.5    c0.177,0,4.823,0,5,0c0.276,0,0.5-0.224,0.5-0.5C19,45.224,18.776,45,18.5,45z"/>
	</g>
	<g>
		<path style="fill:#FFFFFF;" d="M23.5,47c-0.177,0-2.823,0-3,0c-0.276,0-0.5,0.224-0.5,0.5c0,0.276,0.224,0.5,0.5,0.5    c0.177,0,2.823,0,3,0c0.276,0,0.5-0.224,0.5-0.5C24,47.224,23.776,47,23.5,47z"/>
	</g>
</g>
<g>
	<g>
		<path style="fill:#FFFFFF;" d="M67.5,21h-10c-0.276,0-0.5-0.224-0.5-0.5s0.224-0.5,0.5-0.5h10c0.276,0,0.5,0.224,0.5,0.5    S67.776,21,67.5,21z"/>
	</g>
	<g>
		<path style="fill:#FFFFFF;" d="M71.5,21h-2c-0.276,0-0.5-0.224-0.5-0.5s0.224-0.5,0.5-0.5h2c0.276,0,0.5,0.224,0.5,0.5    S71.776,21,71.5,21z"/>
	</g>
	<g>
		<path style="fill:#FFFFFF;" d="M76.5,23h-10c-0.276,0-0.5-0.224-0.5-0.5s0.224-0.5,0.5-0.5h10c0.276,0,0.5,0.224,0.5,0.5    S76.777,23,76.5,23z"/>
	</g>
	<g>
		<path style="fill:#FFFFFF;" d="M64.5,23h-1c-0.276,0-0.5-0.224-0.5-0.5s0.224-0.5,0.5-0.5h1c0.276,0,0.5,0.224,0.5,0.5    S64.776,23,64.5,23z"/>
	</g>
	<g>
		<path style="fill:#FFFFFF;" d="M61.375,23H59.5c-0.276,0-0.5-0.224-0.5-0.5s0.224-0.5,0.5-0.5h1.875c0.276,0,0.5,0.224,0.5,0.5    S61.651,23,61.375,23z"/>
	</g>
	<g>
		<path style="fill:#FFFFFF;" d="M70.5,19h-5c-0.276,0-0.5-0.224-0.5-0.5s0.224-0.5,0.5-0.5h5c0.276,0,0.5,0.224,0.5,0.5    S70.777,19,70.5,19z"/>
	</g>
	<g>
		<path style="fill:#FFFFFF;" d="M67.5,25h-2c-0.276,0-0.5-0.224-0.5-0.5s0.224-0.5,0.5-0.5h2c0.276,0,0.5,0.224,0.5,0.5    S67.776,25,67.5,25z"/>
	</g>
</g>
<g>
	<g>
		<g>
			<path class="discord-bot" style="fill:#88CDD7;" d="M65.116,72.816c-0.672,0-1.148-0.239-1.546-0.775c-1.17-1.578-1.742-3.463-1.748-3.481     l-0.173-0.577l-0.597,0.084c-2.938,0.418-5.951,0.63-8.954,0.63c-3.005,0-6.085-0.212-9.155-0.63l-0.594-0.081l-0.172,0.574     c-0.006,0.019-0.578,1.903-1.748,3.481c-0.397,0.536-0.874,0.775-1.546,0.775c-0.714,0-1.551-0.262-2.437-0.538l-0.591-0.183     c-2.52-0.757-6.362-3.296-8.007-4.784c-0.712-0.682-1.464-1.4-1.011-5.652c0.511-4.795,3.524-16.866,4.592-19.473     c0.955-2.332,2.589-3.353,4.322-4.274c1.921-0.857,4.063-1.569,6.325-2.096c0.527-0.109,0.986-0.165,1.388-0.165     c1.161,0,1.493,0.457,1.653,0.854l1.016,2.531l0.584-0.136c1.738-0.404,3.508-0.609,5.26-0.609s3.537,0.205,5.305,0.61     l0.583,0.133l1.015-2.529c0.16-0.397,0.492-0.854,1.653-0.854c0.401,0,0.86,0.056,1.402,0.169     c2.247,0.522,4.39,1.234,6.354,2.112c1.69,0.901,3.324,1.922,4.279,4.254c1.067,2.606,4.081,14.678,4.592,19.473     c0.453,4.252-0.299,4.971-1.024,5.666c-1.631,1.475-5.474,4.014-7.993,4.771l-0.592,0.183     C66.667,72.555,65.83,72.816,65.116,72.816L65.116,72.816z"/>
		</g>
		<g>
			<path style="fill:#472B29;" d="M60.533,36.352c0.348,0,0.772,0.052,1.229,0.147c2.202,0.512,4.287,1.204,6.199,2.055     c1.658,0.884,3.099,1.797,3.96,3.899c1.029,2.513,4.05,14.647,4.544,19.282c0.416,3.909-0.181,4.481-0.784,5.059     c-1.559,1.41-5.349,3.916-7.739,4.633c-0.2,0.06-0.4,0.123-0.6,0.185c-0.833,0.26-1.619,0.506-2.226,0.506     c-0.451,0-0.718-0.133-0.983-0.492c-1.092-1.473-1.634-3.249-1.639-3.264l-0.344-1.156l-1.194,0.169     c-2.908,0.413-5.888,0.623-8.859,0.623c-2.973,0-6.021-0.21-9.058-0.624l-1.189-0.162l-0.342,1.149     c-0.005,0.018-0.554,1.8-1.639,3.264c-0.266,0.359-0.533,0.492-0.984,0.492c-0.607,0-1.394-0.246-2.226-0.506     c-0.199-0.062-0.399-0.125-0.599-0.185c-2.39-0.718-6.18-3.224-7.71-4.606c-0.632-0.605-1.23-1.177-0.813-5.086     c0.494-4.634,3.515-16.769,4.544-19.282c0.86-2.102,2.301-3.014,3.96-3.898c1.912-0.851,3.997-1.542,6.168-2.048     c0.488-0.102,0.911-0.154,1.26-0.154c0.836,0,0.945,0.27,1.003,0.415l0.792,1.975l0.447,1.114l1.169-0.271     c1.687-0.392,3.403-0.591,5.102-0.591c1.7,0,3.432,0.199,5.147,0.592l1.166,0.267l0.445-1.111l0.792-1.974     C59.589,36.622,59.697,36.352,60.533,36.352 M60.534,34.952c-1.017,0-1.908,0.312-2.302,1.293l-0.792,1.975     c-1.832-0.419-3.653-0.627-5.46-0.627c-1.82,0-3.626,0.21-5.419,0.627l-0.792-1.975c-0.394-0.982-1.285-1.293-2.302-1.293     c-0.5,0-1.03,0.075-1.546,0.183c-2.309,0.538-4.476,1.256-6.497,2.16c-1.74,0.925-3.575,2.024-4.64,4.627     c-1.094,2.67-4.13,14.874-4.64,19.664c-0.464,4.357,0.271,5.321,1.238,6.246c1.663,1.503,5.609,4.135,8.275,4.936     c1.121,0.336,2.234,0.75,3.228,0.75c0.8,0,1.522-0.268,2.108-1.058c1.262-1.703,1.856-3.698,1.856-3.698     c3.108,0.423,6.191,0.636,9.247,0.636c3.045,0,6.063-0.211,9.056-0.636c0,0,0.594,1.995,1.856,3.698     c0.586,0.791,1.309,1.058,2.108,1.058c0.994,0,2.107-0.413,3.228-0.75c2.666-0.801,6.613-3.432,8.275-4.936     c0.967-0.925,1.702-1.889,1.238-6.246c-0.51-4.79-3.547-16.994-4.64-19.664c-1.066-2.603-2.9-3.702-4.64-4.627     c-2.021-0.903-4.187-1.622-6.497-2.16C61.564,35.027,61.033,34.952,60.534,34.952L60.534,34.952z"/>
		</g>
	</g>
	<g>
		<path style="fill:#472B29;" d="M52.154,69.446c-5.579,0-11.133-0.897-16.622-2.693c-0.367-0.12-0.567-0.516-0.447-0.883    c0.12-0.368,0.517-0.568,0.883-0.447c10.689,3.496,21.634,3.497,32.532-0.001c0.372-0.122,0.763,0.085,0.88,0.452    c0.118,0.368-0.084,0.762-0.452,0.88C63.337,68.549,57.733,69.446,52.154,69.446z"/>
	</g>
	<g>
		<path style="fill:#472B29;" d="M66.219,42.239c-0.091,0-0.184-0.018-0.272-0.056c-9.187-3.883-18.415-3.883-27.424-0.002    c-0.356,0.151-0.768-0.01-0.92-0.365c-0.153-0.355,0.011-0.768,0.365-0.92c9.377-4.039,18.973-4.039,28.523-0.002    c0.356,0.15,0.522,0.561,0.372,0.917C66.751,42.079,66.491,42.239,66.219,42.239z"/>
	</g>
	<g>
		<path style="fill:#472B29;" d="M66.219,44.825c-0.065,0-0.132-0.013-0.195-0.04c-0.356-0.151-0.712-0.296-1.069-0.435    c-4.919-1.92-9.88-2.745-14.746-2.45c-0.306,0.041-0.514-0.193-0.529-0.469c-0.017-0.275,0.193-0.513,0.469-0.529    c5.01-0.305,10.114,0.543,15.17,2.517c0.365,0.143,0.73,0.291,1.097,0.446c0.254,0.107,0.373,0.401,0.265,0.655    C66.599,44.711,66.413,44.825,66.219,44.825z"/>
	</g>
	<g>
		<path style="fill:#472B29;" d="M45.782,42.465c-0.234,0-0.443-0.165-0.49-0.404c-0.053-0.271,0.124-0.533,0.396-0.586    c0.772-0.151,1.546-0.275,2.299-0.37c0.271-0.038,0.524,0.158,0.559,0.434c0.034,0.274-0.16,0.524-0.434,0.559    c-0.731,0.092-1.482,0.212-2.232,0.359C45.847,42.462,45.814,42.465,45.782,42.465z"/>
	</g>
	<g>
		<path style="fill:#472B29;" d="M39.124,44.458c-0.198,0-0.385-0.118-0.464-0.313c-0.104-0.256,0.021-0.547,0.277-0.65    c1.532-0.617,3.088-1.134,4.625-1.534c0.271-0.077,0.54,0.091,0.609,0.357c0.07,0.267-0.09,0.54-0.357,0.609    c-1.495,0.391-3.011,0.894-4.504,1.495C39.25,44.446,39.187,44.458,39.124,44.458z"/>
	</g>
	<g>
		<g>
			<path style="fill:#FFFEF4;" d="M43.179,61.674c-2.431,0-4.407-2.394-4.407-5.336c0-2.941,1.977-5.335,4.407-5.335     s4.407,2.394,4.407,5.335C47.586,59.28,45.609,61.674,43.179,61.674z"/>
		</g>
		<g>
			<path style="fill:#472B29;" d="M43.179,51.702c2.044,0,3.707,2.08,3.707,4.636s-1.663,4.636-3.707,4.636     c-2.044,0-3.707-2.08-3.707-4.636S41.134,51.702,43.179,51.702 M43.179,50.302c-2.821,0-5.107,2.703-5.107,6.036     c0,3.333,2.287,6.036,5.107,6.036c2.821,0,5.107-2.703,5.107-6.036C48.286,53.005,45.999,50.302,43.179,50.302L43.179,50.302z"/>
		</g>
	</g>
	<g>
		<g>
			<path style="fill:#FFFEF4;" d="M60.821,61.674c-2.431,0-4.407-2.394-4.407-5.336c0-2.941,1.977-5.335,4.407-5.335     s4.407,2.394,4.407,5.335C65.229,59.28,63.252,61.674,60.821,61.674z"/>
		</g>
		<g>
			<path style="fill:#472B29;" d="M60.821,51.702c2.044,0,3.707,2.08,3.707,4.636s-1.663,4.636-3.707,4.636     c-2.044,0-3.707-2.08-3.707-4.636S58.777,51.702,60.821,51.702 M60.821,50.302c-2.821,0-5.107,2.703-5.107,6.036     c0,3.333,2.287,6.036,5.107,6.036c2.821,0,5.107-2.703,5.107-6.036C65.929,53.005,63.642,50.302,60.821,50.302L60.821,50.302z"/>
		</g>
	</g>
</g>
<g>
	<g>
		<path style="fill:#FDFCEF;" d="M26.5,73.5c0,0,1.567,0,3.5,0s3.5-1.567,3.5-3.5c0-1.781-1.335-3.234-3.055-3.455    C30.473,66.366,30.5,66.187,30.5,66c0-1.933-1.567-3.5-3.5-3.5c-1.032,0-1.95,0.455-2.59,1.165    c-0.384-1.808-1.987-3.165-3.91-3.165c-2.209,0-4,1.791-4,4c0,0.191,0.03,0.374,0.056,0.558C16.128,64.714,15.592,64.5,15,64.5    c-1.228,0-2.245,0.887-2.455,2.055C12.366,66.527,12.187,66.5,12,66.5c-1.933,0-3.5,1.567-3.5,3.5s1.567,3.5,3.5,3.5s7.5,0,7.5,0    V74h7V73.5z"/>
	</g>
	<g>
		<path style="fill:#472B29;" d="M28.25,69C28.112,69,28,68.888,28,68.75c0-1.223,0.995-2.218,2.218-2.218    c0.034,0.009,0.737-0.001,1.244,0.136c0.133,0.036,0.212,0.173,0.176,0.306c-0.036,0.134-0.173,0.213-0.306,0.176    c-0.444-0.12-1.1-0.12-1.113-0.118c-0.948,0-1.719,0.771-1.719,1.718C28.5,68.888,28.388,69,28.25,69z"/>
	</g>
	<g>
		<circle style="fill:#472B29;" cx="21.5" cy="73.5" r="0.5"/>
	</g>
	<g>
		<path style="fill:#472B29;" d="M30,74h-3.5c-0.276,0-0.5-0.224-0.5-0.5s0.224-0.5,0.5-0.5H30c1.654,0,3-1.346,3-3    c0-1.496-1.125-2.768-2.618-2.959c-0.134-0.018-0.255-0.088-0.336-0.196s-0.115-0.244-0.094-0.377C29.975,66.314,30,66.16,30,66    c0-1.654-1.346-3-3-3c-0.85,0-1.638,0.355-2.219,1c-0.125,0.139-0.321,0.198-0.5,0.148c-0.182-0.049-0.321-0.195-0.36-0.379    C23.58,62.165,22.141,61,20.5,61c-1.93,0-3.5,1.57-3.5,3.5c0,0.143,0.021,0.28,0.041,0.418c0.029,0.203-0.063,0.438-0.242,0.54    c-0.179,0.102-0.396,0.118-0.556-0.01C15.878,65.155,15.449,65,15,65c-0.966,0-1.792,0.691-1.963,1.644    c-0.048,0.267-0.296,0.446-0.569,0.405C12.314,67.025,12.16,67,12,67c-1.654,0-3,1.346-3,3s1.346,3,3,3h7.5    c0.276,0,0.5,0.224,0.5,0.5S19.776,74,19.5,74H12c-2.206,0-4-1.794-4-4s1.794-4,4-4c0.059,0,0.116,0.002,0.174,0.006    C12.588,64.82,13.711,64,15,64c0.349,0,0.689,0.061,1.011,0.18C16.176,61.847,18.126,60,20.5,60c1.831,0,3.466,1.127,4.153,2.774    C25.333,62.276,26.155,62,27,62c2.206,0,4,1.794,4,4c0,0.048-0.001,0.095-0.004,0.142C32.739,66.59,34,68.169,34,70    C34,72.206,32.206,74,30,74z"/>
	</g>
	<g>
		<path style="fill:#472B29;" d="M24.5,73c-0.159,0-0.841,0-1,0c-0.276,0-0.5,0.224-0.5,0.5c0,0.276,0.224,0.5,0.5,0.5    c0.159,0,0.841,0,1,0c0.276,0,0.5-0.224,0.5-0.5C25,73.224,24.776,73,24.5,73z"/>
	</g>
</g>
</svg>
