<svg xmlns="http://www.w3.org/2000/svg" height="628pt" version="1.1" viewBox="0 -5 628.10218 628" width="628pt">
<defs>
<linearGradient gradientTransform="matrix(2.666267,0,0,2.666267,-11.953545,-1461.10375)" gradientUnits="userSpaceOnUse" id="linear0" x1="-1.492" x2="252.6843" y1="794.0228" y2="539.8464">
<stop offset="0" style="stop-color:rgb(100%,60%,70.980392%);stop-opacity:1;" />
<stop offset="1" style="stop-color:rgb(100%,86.27451%,40.784314%);stop-opacity:1;" />
</linearGradient>
</defs>
<g id="surface1">
<path d="M 621.457031 330.285156 L 518.183594 330.285156 L 598.691406 196.324219 C 600.671875 193.355469 599.679688 189.066406 596.382812 187.417969 C 595.390625 186.757812 594.070312 186.425781 593.082031 186.425781 L 489.480469 186.425781 L 614.859375 10.566406 C 618.816406 4.957031 612.21875 -2.632812 605.949219 0.996094 L 345.292969 157.390625 L 371.027344 54.777344 C 372.347656 49.5 367.070312 45.210938 362.121094 47.1875 C 325.824219 62.367188 215.292969 109.878906 143.695312 157.390625 C 79.027344 200.945312 7.425781 263.632812 0.5 370.535156 C -8.082031 502.515625 95.191406 617.007812 227.5 618.328125 C 433.058594 620.304688 593.410156 391.984375 627.066406 340.511719 C 629.707031 336.222656 626.40625 330.285156 621.457031 330.285156 Z M 621.457031 330.285156 " style=" stroke:none;fill-rule:nonzero;fill:url(#linear0);" />
<path d="M 237.398438 539.136719 C 149.964844 539.136719 79.027344 468.199219 79.027344 380.765625 C 79.027344 293.328125 149.964844 222.390625 237.398438 222.390625 C 324.835938 222.390625 395.773438 293.328125 395.773438 380.765625 C 395.773438 468.199219 324.835938 539.136719 237.398438 539.136719 Z M 237.398438 539.136719 " style=" stroke:none;fill-rule:nonzero;fill:rgb(100%,94.901961%,77.647059%);fill-opacity:1;" />
<path d="M 263.796875 512.742188 C 176.359375 512.742188 105.421875 442.136719 105.421875 354.699219 C 105.421875 319.066406 117.300781 284.421875 139.40625 256.375 C 70.777344 310.488281 58.898438 409.800781 112.679688 478.757812 C 166.460938 547.71875 266.105469 559.265625 335.0625 505.484375 C 344.960938 497.566406 353.871094 488.65625 361.789062 478.757812 C 333.742188 500.867188 299.429688 512.742188 263.796875 512.742188 Z M 263.796875 512.742188 " style=" stroke:none;fill-rule:nonzero;fill:rgb(100%,92.941176%,70.588235%);fill-opacity:1;" />
<path d="M 211.003906 327.972656 C 211.003906 342.550781 199.1875 354.371094 184.609375 354.371094 C 170.03125 354.371094 158.210938 342.550781 158.210938 327.972656 C 158.210938 313.394531 170.03125 301.578125 184.609375 301.578125 C 199.1875 301.578125 211.003906 313.394531 211.003906 327.972656 Z M 211.003906 327.972656 " style=" stroke:none;fill-rule:nonzero;fill:rgb(100%,89.803922%,55.686275%);fill-opacity:1;" />
<path d="M 237.398438 433.554688 C 237.398438 448.132812 225.582031 459.953125 211.003906 459.953125 C 196.425781 459.953125 184.609375 448.132812 184.609375 433.554688 C 184.609375 418.980469 196.425781 407.160156 211.003906 407.160156 C 225.582031 407.160156 237.398438 418.980469 237.398438 433.554688 Z M 237.398438 433.554688 " style=" stroke:none;fill-rule:nonzero;fill:rgb(100%,89.803922%,55.686275%);fill-opacity:1;" />
<path d="M 342.984375 407.160156 C 342.984375 421.738281 331.164062 433.554688 316.585938 433.554688 C 302.007812 433.554688 290.191406 421.738281 290.191406 407.160156 C 290.191406 392.582031 302.007812 380.765625 316.585938 380.765625 C 331.164062 380.765625 342.984375 392.582031 342.984375 407.160156 Z M 342.984375 407.160156 " style=" stroke:none;fill-rule:nonzero;fill:rgb(100%,89.803922%,55.686275%);fill-opacity:1;" />
</g>
</svg>