<svg height="512pt" viewBox="0 -94 512.00213 512" width="512pt" xmlns="http://www.w3.org/2000/svg"><path d="m228.960938 42.648438c-18.714844-17.613282-46.519532-28.78125-77.570313-28.78125-33.476563 0-63.1875 12.980468-81.796875 33.03125-3.761719-.574219-7.640625-.886719-11.605469-.886719-24.574219 0-45.8125 11.488281-55.894531 28.15625-5.8125 9.609375 1.179688 21.882812 12.410156 21.882812h262.179688c10.980468 0 17.9375-11.75 12.6875-21.402343-10.195313-18.75-33.390625-31.878907-60.410156-32zm0 0" fill="#9cdae3"/><path d="m79.996094 96.054688c-28.515625-10.253907-32.90625-36.589844-24.453125-50-23.527344.730468-43.703125 12-53.449219 28.113281-5.8125 9.609375 1.183594 21.886719 12.410156 21.886719zm0 0" fill="#75b1d9"/><path d="m397.417969 156.34375c0 86.34375-69.996094 156.339844-156.339844 156.339844s-156.339844-69.996094-156.339844-156.339844c0-86.347656 69.996094-156.34375 156.339844-156.34375s156.339844 69.996094 156.339844 156.34375zm0 0" fill="#f8eed1"/><path d="m354.28125 264.175781c-163.460938 29.496094-220.570312-154.132812-187.128906-245.621093-49.058594 26.378906-82.414063 78.183593-82.414063 137.789062 0 86.34375 69.996094 156.339844 156.339844 156.339844 44.539063 0 84.726563-18.625 113.203125-48.507813zm0 0" fill="#edd8a4"/><path d="m357.648438 190.777344c-21.210938 0-38.40625 17.195312-38.40625 38.40625 0 19.09375 13.9375 34.925781 32.191406 37.898437 16.757812-16.699219 29.746094-37.179687 37.578125-60.050781-6.953125-9.828125-18.40625-16.253906-31.363281-16.253906zm0 0" fill="#edd8a4"/><path d="m398.539062 229.183594c-43.003906 0-80.601562 18.609375-101.082031 46.363281-5.230469-1.152344-10.734375-1.777344-16.417969-1.777344-26.21875 0-48.644531 13.078125-57.769531 31.574219-4.195312 8.503906 1.917969 18.464844 11.402344 18.464844h256.351563c14.867187 0 24.949218-15.007813 19.464843-28.828125-15.140625-38.160157-59.539062-65.796875-111.949219-65.796875zm0 0" fill="#9cdae3"/><path d="m251.722656.371094c.199219 33.550781 27.453125 60.691406 61.054688 60.691406 15.089844 0 28.890625-5.484375 39.546875-14.554688-26.015625-26.351562-61.320313-43.496093-100.601563-46.136718zm0 0" fill="#edd8a4"/><path d="m190.792969 241.378906c0 13.992188-11.339844 25.332032-25.332031 25.332032-13.988282 0-25.332032-11.339844-25.332032-25.332032 0-13.992187 11.34375-25.332031 25.332032-25.332031 13.992187 0 25.332031 11.339844 25.332031 25.332031zm0 0" fill="#f8eed1"/><path d="m241.078125 52.089844c0 10.578125-8.574219 19.15625-19.15625 19.15625-10.578125 0-19.15625-8.578125-19.15625-19.15625s8.578125-19.15625 19.15625-19.15625c10.582031 0 19.15625 8.578125 19.15625 19.15625zm0 0" fill="#edd8a4"/><path d="m190.097656 153.667969c0-13.113281-13.347656-23.742188-29.8125-23.742188s-29.8125 10.628907-29.8125 23.742188c0 13.109375 13.347656 23.738281 29.8125 23.738281s29.8125-10.628906 29.8125-23.738281zm0 0" fill="#eb8db3" class="left-cheek"/><path d="m351.683594 153.667969c0-13.113281-13.347656-23.742188-29.8125-23.742188-16.460938 0-29.808594 10.628907-29.808594 23.742188 0 13.109375 13.347656 23.738281 29.808594 23.738281 16.464844 0 29.8125-10.628906 29.8125-23.738281zm0 0" fill="#eb8db3" class="right-cheek"/><g fill="#495059"><path d="m165.269531 133.136719c-.144531 0-7.5-3.359375-7.5-7.5v-12.796875c0-4.144532 3.355469-7.5 7.5-7.5 4.140625 0 7.5 3.355468 7.5 7.5v12.796875c0 4.140625-3.359375 7.5-7.5 7.5zm0 0"/><path d="m241.078125 157.023438c-11.925781 0-21.597656-9.667969-21.597656-21.597657v-15.703125c0-3.253906 2.640625-5.894531 5.894531-5.894531h31.40625c3.257812 0 5.898438 2.640625 5.898438 5.894531v15.703125c0 11.929688-9.671876 21.597657-21.601563 21.597657zm0 0"/><path d="m316.890625 133.136719c-4.144531 0-7.5-3.359375-7.5-7.5v-12.796875c0-4.144532 3.355469-7.5 7.5-7.5 4.140625 0 7.5 3.355468 7.5 7.5v12.796875c0 4.140625-3.359375 7.5-7.5 7.5zm0 0"/></g><path d="m363.425781 233.488281c-27.894531 7.027344-51.316406 22.199219-65.96875 42.0625-5.230469-1.152343-10.734375-1.78125-16.417969-1.78125-26.21875 0-48.644531 13.078125-57.769531 31.574219-4.195312 8.503906 1.917969 18.464844 11.402344 18.464844h157.105469c-42.09375-21.632813-47.050782-68.578125-28.351563-90.320313zm0 0" fill="#75b1d9"/></svg>