<?xml version="1.0" standalone="no"?>
<!DOCTYPE svg PUBLIC "-//W3C//DTD SVG 20010904//EN"
 "http://www.w3.org/TR/2001/REC-SVG-20010904/DTD/svg10.dtd">
<svg version="1.0" xmlns="http://www.w3.org/2000/svg"
 width="644.000000pt" height="644.000000pt" viewBox="0 0 644.000000 644.000000"
 preserveAspectRatio="xMidYMid meet">
<metadata>
Created by potrace 1.11, written by Peter Selinger 2001-2013
</metadata>
<g transform="translate(0.000000,644.000000) scale(0.100000,-0.100000)"
fill="#000000" stroke="none">
<path d="M1610 3230 c-880 -1760 -1600 -3202 -1600 -3205 0 -3 396 -4 881 -3
l880 3 722 1587 c397 873 724 1588 727 1588 3 0 47 -83 97 -184 l92 -185 -248
-603 -248 -603 551 -3 551 -2 400 -800 400 -800 807 0 c445 0 808 2 808 5 0
16 -3202 6405 -3210 6405 -5 0 -730 -1440 -1610 -3200z"/>
</g>
</svg>
